<svg xmlns="http://www.w3.org/2000/svg" xml:space="preserve" width="88" height="31">
  <path d="M.5.5h87v30H.5z" style="fill:#ebebeb;stroke:#101010"/>
  <path fill="#101010" d="M10.2 8A7.6 7.6 0 0 0 4 14.3 7.6 7.6 0 1 0 10.2 8Zm.7 6.2 1.1.8c.8.7 1 .8 1.4.7.3 0 .8-.6 1.1-1 .3-.5.4-.6 1.2-.2l.5.3-.2.4a5.8 5.8 0 0 1-.8 1c-.7.7-1 .8-2.1.8-1 0-1.3-.1-2.2-1-.7-.6-1-.8-1.4-.7-.4.1-1 .8-1.2 1.2-.2.3-.3.3-1 0l-.6-.3.3-.5a3.5 3.5 0 0 1 1.5-1.5c.4-.2.6-.2 1.2-.2.7 0 .9 0 1.2.2z"/>
  <path d="m24.5 15.3.2 1q0 .4.2.6l.4.3.3.2h.3q.5 0 .8-.3l.6-.7 1.5 1q-.4.7-1 1-.7.4-1.8.4l-1.1-.1q-.5-.1-1-.5-.6-.4-.8-1.2-.3-.7-.3-1.7 0-3.3 3.2-3.3 1.1 0 1.7.4.6.4.8 1l-1.4.7q-.2-.7-1.2-.7-.6 0-1 .6-.4.5-.4 1.3zm10.6 3.5q-.6-.2-.8-.8-.4.4-1 .5-.5.2-1.2.2h-.7l-.6-.2q-.3 0-.5-.3l-.4-.4-.1-.6v-1.8l-.1-3.2 1.6-.2v.5l.1.8v3.5q0 .3.2.4.2.2.6.2.7 0 1-.4.4-.4.4-1v-4h1.7v4.7q0 .3.2.5l.5.4zm4.8-9.4h1.8V11H40Zm1.8 9.8-.1.8-.4.6-.8.5q-.4.2-1.1.2h-.7L38 21q-.4-.1-.7-.4l-.7-.8 1.1-1 .7.9q.4.3.7.3h.2l.3-.1q.2 0 .2-.2l.2-.2V13.4l-1.5.2-.2-1.3 1.7-.2h1.7zm5.5-2.1q.4-.4.4-1.9 0-1-.3-1.4-.2-.5-.8-.5-.7 0-1 .6-.3.6-.3 1.7 0 .8.3 1.3t1 .5h.3l.4-.3zm-.8 1.7q-1.4 0-2.1-.8-.7-.9-.7-2.3 0-3.8 2.8-3.8 1 0 1.5.4.6.3 1 1 .3.7.3 1.9v.9l-.2.8-.3.8-.6.5q-.3.3-.7.4-.4.2-1 .2zm5.9-2.1h2v2h-2zm6.8-1.4.1 1 .3.6q.1.2.4.3l.3.2h.3q.5 0 .8-.3l.6-.7 1.4 1q-.3.7-1 1-.6.4-1.7.4l-1.2-.1q-.5-.1-.9-.5-.6-.4-.9-1.2-.2-.7-.2-1.7 0-3.3 3.2-3.3 1 0 1.7.4.5.4.8 1l-1.4.7q-.2-.7-1.2-.7-.7 0-1 .6-.4.5-.4 1.3zm6.8 1.3q0 .5.3.7.2.2.6.2.5 0 .8-.4.4-.3.6-.7v-.3l-.5-.3-.6-.2q-.4 0-.8.3t-.4.7zm4 0v.8q.1.3.4.5l-.8 1-.2-.2-.2-.2-.2-.1-.2-.3q-.4.4-1 .5-.4.2-1.3.2-.8 0-1.5-.6t-.7-1.5q0-1 .6-1.5.4-.5 1-.7.5-.2 1.3-.2.6 0 1 .3V14l-.4-.4-.4-.2H67q-1.2 0-1.8.7l-.8-1.4.7-.4.6-.2.6-.1h.8q.7 0 1.3.3.6.2 1 .8.4.6.4 1.3zm2.7-1.5q-.4-.2-.7-.6-.2-.4-.2-.9l.2-.8.5-.5.8-.2.9-.1h.7l.6.1.7.3.6.5-1.2 1q-.6-.6-1.4-.6-.8 0-.8.4 0 .3.3.4l.6.3.6.2.5.2.5.3q.2 0 .4.3l.3.4q.2.2.2.5l.1.6-.1.7-.4.5-.6.4q-.2.2-.5.2L74 19q-1.3 0-2-.7-.7-.6-.7-1.6H73q0 .5.3.7.2.2.7.2h.4l.3-.1q.2 0 .3-.2l.2-.4-.1-.4-.4-.4-1-.5-1.1-.4zm7.1 1.5q0 .5.3.7.2.2.6.2.5 0 .9-.4.4-.3.5-.7v-.3l-.5-.3-.6-.2q-.4 0-.8.3t-.4.7zm4 0v.8l.4.5-.8 1-.2-.2-.2-.2-.2-.1-.2-.3q-.4.4-.9.5-.5.2-1.3.2-.9 0-1.6-.6-.7-.6-.7-1.5 0-1 .6-1.5.5-.5 1-.7.6-.2 1.3-.2.6 0 1 .3V14l-.4-.4-.3-.2h-.4q-1.1 0-1.8.7l-.8-1.4.7-.4.6-.2.6-.1h.8q.7 0 1.3.3.7.2 1 .8.4.6.4 1.3z"/>
</svg>
