<svg xmlns="http://www.w3.org/2000/svg" xml:space="preserve" style="fill-rule:evenodd;clip-rule:evenodd;stroke-linecap:round;stroke-linejoin:round;stroke-miterlimit:1.5" viewBox="0 0 88 31"><path d="M0 0h88v31H0z" style="fill:#7c00c3"/><path d="M4.095 6.373h2.309v7.652h8.487V6.373h2.338v18.254h-2.338v-8.598H6.404v8.598H4.095V6.373Zm25.043 18.588c-1.15 0-2.208-.214-3.172-.64a7.233 7.233 0 0 1-2.518-1.851c-.715-.807-1.271-1.799-1.67-2.977s-.598-2.509-.598-3.993c0-1.465.204-2.783.612-3.951.408-1.169.974-2.161 1.697-2.978a7.397 7.397 0 0 1 2.56-1.878c.983-.436 2.059-.654 3.228-.654 1.113 0 2.091.227 2.936.682.844.455 1.534.979 2.073 1.572l-1.252 1.503a5.979 5.979 0 0 0-1.642-1.253c-.612-.315-1.308-.473-2.087-.473-.872 0-1.66.172-2.365.515a5.135 5.135 0 0 0-1.809 1.475c-.501.64-.886 1.415-1.155 2.323-.269.91-.403 1.93-.403 3.061 0 1.151.134 2.185.403 3.103.269.918.645 1.702 1.127 2.351a4.974 4.974 0 0 0 1.767 1.503c.696.352 1.479.528 2.351.528.891 0 1.67-.18 2.338-.542.668-.362 1.298-.867 1.892-1.517l1.28 1.447c-.723.835-1.54 1.485-2.449 1.948-.909.464-1.957.696-3.144.696Z" style="fill:#fff;fill-rule:nonzero"/><path d="M.663-.71V0H.55v-.313H.192V0H.08v-.71h.112v.298H.55V-.71h.113Z" style="fill:#fff;fill-rule:nonzero" transform="matrix(11.45829 0 0 11.45829 43.856 13.289)"/><path d="M.567-.099V0H.08v-.71h.478v.099H.192v.202h.317v.093H.192v.217h.375Z" style="fill:#fff;fill-rule:nonzero" transform="matrix(11.45829 0 0 11.45829 52.37 13.289)"/><path d="M.08 0v-.71h.112v.611h.381V0H.08Z" style="fill:#fff;fill-rule:nonzero" transform="matrix(11.45829 0 0 11.45829 59.28 13.289)"/><path d="M.567-.099V0H.08v-.71h.478v.099H.192v.202h.317v.093H.192v.217h.375Z" style="fill:#fff;fill-rule:nonzero" transform="matrix(11.45829 0 0 11.45829 65.97 13.289)"/><path d="M.192-.502V0H.08v-.71h.092l.402.513v-.512h.113V0H.589L.192-.502Z" style="fill:#fff;fill-rule:nonzero" transform="matrix(11.45829 0 0 11.45829 72.88 13.289)"/><path d="M.035-.361a.38.38 0 0 1 .09-.242.344.344 0 0 1 .109-.082.336.336 0 0 1 .145-.03.31.31 0 0 1 .166.044.283.283 0 0 1 .104.111l-.088.059a.188.188 0 0 0-.05-.068.188.188 0 0 0-.067-.035.24.24 0 0 0-.167.012.217.217 0 0 0-.071.06.295.295 0 0 0-.04.274.291.291 0 0 0 .048.084c.02.024.044.043.072.057a.2.2 0 0 0 .092.021.225.225 0 0 0 .139-.049.175.175 0 0 0 .05-.068L.66-.16a.22.22 0 0 1-.068.09.348.348 0 0 1-.218.075.3.3 0 0 1-.137-.031.366.366 0 0 1-.177-.202.387.387 0 0 1-.025-.133Z" style="fill:#fff;fill-rule:nonzero" transform="matrix(11.45829 0 0 11.45829 41.765 25.789)"/><path d="M.663-.71V0H.55v-.313H.192V0H.08v-.71h.112v.298H.55V-.71h.113Z" style="fill:#fff;fill-rule:nonzero" transform="matrix(11.45829 0 0 11.45829 49.603 25.789)"/><path d="M.375.005a.318.318 0 0 1-.246-.112.368.368 0 0 1-.069-.116.356.356 0 0 1 .001-.268.37.37 0 0 1 .18-.195.325.325 0 0 1 .381.085.38.38 0 0 1 .068.382.358.358 0 0 1-.179.195.325.325 0 0 1-.136.029Zm-.226-.36a.286.286 0 0 0 .062.181.208.208 0 0 0 .165.078.2.2 0 0 0 .096-.022.224.224 0 0 0 .071-.059.301.301 0 0 0 .043-.275.28.28 0 0 0-.046-.083.205.205 0 0 0-.164-.078.2.2 0 0 0-.096.022.212.212 0 0 0-.071.059.3.3 0 0 0-.06.177Z" style="fill:#fff;fill-rule:nonzero" transform="matrix(11.45829 0 0 11.45829 58.116 25.789)"/><path d="M.192-.502V0H.08v-.71h.092l.402.513v-.512h.113V0H.589L.192-.502Z" style="fill:#fff;fill-rule:nonzero" transform="matrix(11.45829 0 0 11.45829 66.733 25.789)"/><path d="M.37.005a.303.303 0 0 1-.131-.029.334.334 0 0 1-.107-.08.372.372 0 0 1-.096-.254.366.366 0 0 1 .096-.251.347.347 0 0 1 .108-.078.312.312 0 0 1 .134-.028c.067 0 .124.014.171.042a.275.275 0 0 1 .104.113l-.086.062a.194.194 0 0 0-.08-.087.228.228 0 0 0-.112-.029.194.194 0 0 0-.091.021.215.215 0 0 0-.07.057.257.257 0 0 0-.045.083.319.319 0 0 0 .002.199.23.23 0 0 0 .121.138c.028.013.058.02.091.02.038 0 .075-.01.11-.029a.339.339 0 0 0 .099-.089V-.1A.284.284 0 0 1 .37.005Zm.207-.281H.428V-.36h.243V0H.577v-.276Z" style="fill:#fff;fill-rule:nonzero" transform="matrix(11.45829 0 0 11.45829 75.521 25.789)"/><path d="M88 0v31H0V0h88Zm-1.042 1.042H1.042v28.916h85.916V1.042Z" style="fill:#fff"/><path d="M38.476 0v31" style="fill:none;stroke:#fff;stroke-width:1.04px"/></svg>