<svg xmlns="http://www.w3.org/2000/svg" xml:space="preserve" baseProfile="tiny" overflow="visible" version="1.2" viewBox="0 0 1331 773"><path d="M.03 0h1330.94v772.97H.03z"/><g fill="#00B0EC"><path d="M136 533h21v21h-21zM164.05 533h21v21h-21zM1145.95 533h21v21h-21zM1117.89 533h21v21h-21zM136 561h21v21h-21zM164.05 561h21v21h-21zM1145.95 561h21v21h-21zM1117.89 561h21v21h-21zM136 589h21v21h-21zM164.05 589h21v21h-21zM1145.95 589h21v21h-21zM1117.89 589h21v21h-21zM136 617h21v21h-21zM164.05 617h21v21h-21zM192.11 617h21v21h-21zM220.16 617h21v21h-21zM248.22 617h21v21h-21zM276.27 617h21v21h-21zM304.32 617h21v21h-21zM332.38 617h21v21h-21zM360.43 617h21v21h-21zM388.49 617h21v21h-21zM416.54 617h21v21h-21zM444.59 617h21v21h-21zM472.65 617h21v21h-21zM500.7 617h21v21h-21zM528.76 617h21v21h-21zM556.81 617h21v21h-21zM584.86 617h21v21h-21zM612.92 617h21v21h-21zM640.97 617h21v21h-21zM669.03 617h21v21h-21zM697.08 617h21v21h-21zM725.14 617h21v21h-21zM753.19 617h21v21h-21zM781.24 617h21v21h-21zM809.3 617h21v21h-21zM837.35 617h21v21h-21zM865.41 617h21v21h-21zM893.46 617h21v21h-21zM921.51 617h21v21h-21zM949.57 617h21v21h-21zM977.62 617h21v21h-21zM1005.68 617h21v21h-21zM1033.73 617h21v21h-21zM1061.78 617h21v21h-21zM1089.84 617h21v21h-21zM1145.95 617h21v21h-21zM1117.89 617h21v21h-21zM136 645h21v21h-21zM164.05 645h21v21h-21zM192.11 645h21v21h-21zM220.16 645h21v21h-21zM248.22 645h21v21h-21zM276.27 645h21v21h-21zM304.32 645h21v21h-21zM332.38 645h21v21h-21zM360.43 645h21v21h-21zM388.49 645h21v21h-21zM416.54 645h21v21h-21zM444.59 645h21v21h-21zM472.65 645h21v21h-21zM500.7 645h21v21h-21zM528.76 645h21v21h-21zM556.81 645h21v21h-21zM584.86 645h21v21h-21zM612.92 645h21v21h-21zM640.97 645h21v21h-21zM669.03 645h21v21h-21zM697.08 645h21v21h-21zM725.14 645h21v21h-21zM753.19 645h21v21h-21zM781.24 645h21v21h-21zM809.3 645h21v21h-21zM837.35 645h21v21h-21zM865.41 645h21v21h-21zM893.46 645h21v21h-21zM921.51 645h21v21h-21zM949.57 645h21v21h-21zM977.62 645h21v21h-21zM1005.68 645h21v21h-21zM1033.73 645h21v21h-21zM1061.78 645h21v21h-21zM1089.84 645h21v21h-21zM1145.95 645h21v21h-21zM1117.89 645h21v21h-21z"/></g><g fill="#FFF"><path d="M1174 533h21v21h-21zM1174 561h21v21h-21zM192.11 533h21v21h-21zM192.11 561h21v21h-21zM192.11 589h21v21h-21zM1174 589h21v21h-21zM1174 617h21v21h-21zM1174 645h21v21h-21zM164.05 673h21v21h-21zM192.11 673h21v21h-21zM220.16 673h21v21h-21zM248.22 673h21v21h-21zM276.27 673h21v21h-21zM304.32 673h21v21h-21zM332.38 673h21v21h-21zM360.43 673h21v21h-21zM388.49 673h21v21h-21zM416.54 673h21v21h-21zM444.59 673h21v21h-21zM472.65 673h21v21h-21zM500.7 673h21v21h-21zM528.76 673h21v21h-21zM556.81 673h21v21h-21zM584.86 673h21v21h-21zM612.92 673h21v21h-21zM640.97 673h21v21h-21zM669.03 673h21v21h-21zM697.08 673h21v21h-21zM725.14 673h21v21h-21zM753.19 673h21v21h-21zM781.24 673h21v21h-21zM809.3 673h21v21h-21zM837.35 673h21v21h-21zM865.41 673h21v21h-21zM893.46 673h21v21h-21zM921.51 673h21v21h-21zM949.57 673h21v21h-21zM977.62 673h21v21h-21zM1005.68 673h21v21h-21zM1033.73 673h21v21h-21zM1061.78 673h21v21h-21zM1089.84 673h21v21h-21zM1145.95 673h21v21h-21zM1117.89 673h21v21h-21zM1174 673h21v21h-21z"/></g><g fill="#FFF"><path d="M735 491.26h-41.28v-85.2H664.9v85.2h13.74V505h71.45v-13.74h13.74v-85.2H735zM593.88 406.06h-27.72V505h85.2v-13.74h-57.48zM866.17 406.06h-85.19V505h85.19v-13.74h13.74V462.4h-13.74v-13.74h13.74V419.8h-13.74v-13.74zm-14.18 85.2h-43.03V462.4h43.03v28.86zm0-42.6h-43.03V419.8h43.03v28.86zM285.04 435.03h-27.98v13.96H243.1v27.99h13.96v13.96h27.98v-13.96H299v-27.99h-13.96zM1072.91 448.99v-13.96h-27.99v13.96h-13.96v27.99h13.96v13.96h27.99v-13.96h13.96v-27.99zM524.88 406.06h-57.72v13.73h-13.73v13.73H439.7v44.02h13.73v13.73h13.73V505h57.72v-13.74h13.74v-13.72h-28.05v13.73h-29.44v-13.73h-13.97v-44.02h13.97v-13.73h29.44v13.73h28.05V419.8h-13.74z"/></g><g fill="#BF75F7"><path d="M948.5 267h-93v108h32.58v-30h15v15h15v15h45.42v-15h-15v-15h-15v-15h30v-48h-15v-15zm-15.42 31.5v15h-15v15h-30v-45h45v15zM335 267h-93v108h93v-15h15v-31.5h-15v-15h15V282h-15v-15zm-16.46 93h-45.08v-31.5h45.08V360zm0-46.5h-45.08V282h45.08v31.5zM442.04 360h-45.08v-93H365.5v93h15v15h78v-15h15v-93h-31.46zM1041 313.7v-.4h15v-15h15v-15h15V267h-31.5v15h-15v15h-15v15h-15v-45H978v108h32.05v-30h15v15h15v15H1086v-16.3h-15v-15h-15v-15h-15v-.4zM564 282h-15v15h-15v15h-15v-45h-31v108h31v-30h15v15h15v15h47v-16.3h-15v-15h-15v-15h-15v-15.4h15v-15h15v-15h15V267h-32zM687 282h-15v15h-15v-15h-15v-15h-31.5v108h31.46v-61.86H657v31.85h15v-31.85h15.04V375h31.46V267H687zM826 282h-15v-15h-48v15h-15v15h-15v78h31.46v-30.01h45.08V375H841v-78h-15v-15zm-16.3 46.06h-45.4v-30h15v-15h15.4v15h15v30z"/></g><g fill="#00B0EC"><path d="M136 79h21v21h-21zM164.05 79h21v21h-21zM192.11 79h21v21h-21zM220.16 79h21v21h-21zM248.22 79h21v21h-21zM276.27 79h21v21h-21zM304.32 79h21v21h-21zM332.38 79h21v21h-21zM360.43 79h21v21h-21zM388.49 79h21v21h-21zM416.54 79h21v21h-21zM444.59 79h21v21h-21zM472.65 79h21v21h-21zM500.7 79h21v21h-21zM528.76 79h21v21h-21zM556.81 79h21v21h-21zM584.86 79h21v21h-21zM612.92 79h21v21h-21zM640.97 79h21v21h-21zM669.03 79h21v21h-21zM697.08 79h21v21h-21zM725.14 79h21v21h-21zM753.19 79h21v21h-21zM781.24 79h21v21h-21zM809.3 79h21v21h-21zM837.35 79h21v21h-21zM865.41 79h21v21h-21zM893.46 79h21v21h-21zM921.51 79h21v21h-21zM949.57 79h21v21h-21zM977.62 79h21v21h-21zM1005.68 79h21v21h-21zM1033.73 79h21v21h-21zM1061.78 79h21v21h-21zM1089.84 79h21v21h-21zM1145.95 79h21v21h-21zM1117.89 79h21v21h-21zM136 107h21v21h-21zM164.05 107h21v21h-21zM192.11 107h21v21h-21zM220.16 107h21v21h-21zM248.22 107h21v21h-21zM276.27 107h21v21h-21zM304.32 107h21v21h-21zM332.38 107h21v21h-21zM360.43 107h21v21h-21zM388.49 107h21v21h-21zM416.54 107h21v21h-21zM444.59 107h21v21h-21zM472.65 107h21v21h-21zM500.7 107h21v21h-21zM528.76 107h21v21h-21zM556.81 107h21v21h-21zM584.86 107h21v21h-21zM612.92 107h21v21h-21zM640.97 107h21v21h-21zM669.03 107h21v21h-21zM697.08 107h21v21h-21zM725.14 107h21v21h-21zM753.19 107h21v21h-21zM781.24 107h21v21h-21zM809.3 107h21v21h-21zM837.35 107h21v21h-21zM865.41 107h21v21h-21zM893.46 107h21v21h-21zM921.51 107h21v21h-21zM949.57 107h21v21h-21zM977.62 107h21v21h-21zM1005.68 107h21v21h-21zM1033.73 107h21v21h-21zM1061.78 107h21v21h-21zM1089.84 107h21v21h-21zM1145.95 107h21v21h-21zM1117.89 107h21v21h-21zM136 135h21v21h-21zM164.05 135h21v21h-21zM1145.95 135h21v21h-21zM1117.89 135h21v21h-21zM136 163h21v21h-21zM164.05 163h21v21h-21zM1145.95 163h21v21h-21zM1117.89 163h21v21h-21zM136 191h21v21h-21zM164.05 191h21v21h-21zM1145.95 191h21v21h-21zM1117.89 191h21v21h-21zM136 219h21v21h-21zM164.05 219h21v21h-21zM1145.95 219h21v21h-21zM1117.89 219h21v21h-21z"/></g><g fill="#FFF"><path d="M192.11 135h21v21h-21zM220.16 135h21v21h-21zM248.22 135h21v21h-21zM276.27 135h21v21h-21zM304.32 135h21v21h-21zM332.38 135h21v21h-21zM360.43 135h21v21h-21zM388.49 135h21v21h-21zM416.54 135h21v21h-21zM444.59 135h21v21h-21zM472.65 135h21v21h-21zM500.7 135h21v21h-21zM528.76 135h21v21h-21zM556.81 135h21v21h-21zM584.86 135h21v21h-21zM612.92 135h21v21h-21zM640.97 135h21v21h-21zM669.03 135h21v21h-21zM697.08 135h21v21h-21zM725.14 135h21v21h-21zM753.19 135h21v21h-21zM781.24 135h21v21h-21zM809.3 135h21v21h-21zM837.35 135h21v21h-21zM865.41 135h21v21h-21zM893.46 135h21v21h-21zM921.51 135h21v21h-21zM949.57 135h21v21h-21zM977.62 135h21v21h-21zM1005.68 135h21v21h-21zM1033.73 135h21v21h-21zM1061.78 135h21v21h-21zM1089.84 135h21v21h-21zM192.11 163h21v21h-21zM192.11 191h21v21h-21zM192.11 219h21v21h-21zM1174 107h21v21h-21zM1174 135h21v21h-21zM1174 163h21v21h-21zM1174 191h21v21h-21zM1174 219h21v21h-21z"/></g></svg>